HIERARCHY
ROOT hip
{
  OFFSET 198.333 82.3274 2.44143
  CHANNELS 6 Xposition Yposition Zposition Zrotation Xrotation Yrotation
  JOINT abdomen
  {
    OFFSET 0 20.6881 -0.73152
    CHANNELS 3 Zrotation Xrotation Yrotation
    JOINT chest
    {
      OFFSET 0 11.7043 -0.48768
      CHANNELS 3 Zrotation Xrotation Yrotation
      JOINT neck
      {
        OFFSET 0 22.1894 -2.19456
        CHANNELS 3 Zrotation Xrotation Yrotation
        JOINT head
        {
          OFFSET -0.24384 7.07133 1.2192
          CHANNELS 3 Zrotation Xrotation Yrotation
          JOINT leftEye
          {
            OFFSET 4.14528 8.04674 8.04672
            CHANNELS 3 Zrotation Xrotation Yrotation
            End Site
            {
              OFFSET 1 0 0
            }
          }
          JOINT rightEye
          {
            OFFSET -3.6576 8.04674 8.04672
            CHANNELS 3 Zrotation Xrotation Yrotation
            End Site
            {
              OFFSET 1 0 0
            }
          }
        }
      }
      JOINT rCollar
      {
        OFFSET -2.68224 19.2634 -4.8768
        CHANNELS 3 Zrotation Xrotation Yrotation
        JOINT rShldr
        {
          OFFSET -8.77824 -1.95073 1.46304
          CHANNELS 3 Zrotation Xrotation Yrotation
          JOINT rForeArm
          {
            OFFSET -28.1742 -1.7115 0.48768
            CHANNELS 3 Zrotation Xrotation Yrotation
            JOINT rHand
            {
              OFFSET -22.5879 0.773209 7.07136
              CHANNELS 3 Zrotation Xrotation Yrotation
              JOINT rThumb1
              {
                OFFSET -1.2192 -0.487915 3.41376
                CHANNELS 3 Zrotation Xrotation Yrotation
                JOINT rThumb2
                {
                  OFFSET -3.37035 -0.52449 3.41376
                  CHANNELS 3 Zrotation Xrotation Yrotation
                  End Site
                  {
                    OFFSET -1.78271 -1.18214 1.43049
                  }
                }
              }
              JOINT rIndex1
              {
                OFFSET -7.75947 0.938293 5.60832
                CHANNELS 3 Zrotation Xrotation Yrotation
                JOINT rIndex2
                {
                  OFFSET -2.54057 -0.884171 1.56538
                  CHANNELS 3 Zrotation Xrotation Yrotation
                  End Site
                  {
                    OFFSET -1.62519 -0.234802 1.16502
                  }
                }
              }
              JOINT rMid1
              {
                OFFSET -8.24714 1.18213 3.41376
                CHANNELS 3 Zrotation Xrotation Yrotation
                JOINT rMid2
                {
                  OFFSET -3.10165 -0.590103 1.0647
                  CHANNELS 3 Zrotation Xrotation Yrotation
                  End Site
                  {
                    OFFSET -2.48547 -0.328903 0.83742
                  }
                }
              }
              JOINT rRing1
              {
                OFFSET -8.82822 0.546677 1.51678
                CHANNELS 3 Zrotation Xrotation Yrotation
                JOINT rRing2
                {
                  OFFSET -2.60934 -0.819778 -0.0198488
                  CHANNELS 3 Zrotation Xrotation Yrotation
                  End Site
                  {
                    OFFSET -2.33842 -0.294052 0.168128
                  }
                }
              }
              JOINT rPinky1
              {
                OFFSET -8.27202 -0.0477905 -0.4584
                CHANNELS 3 Zrotation Xrotation Yrotation
                JOINT rPinky2
                {
                  OFFSET -1.82734 -0.647385 -0.700984
                  CHANNELS 3 Zrotation Xrotation Yrotation
                  End Site
                  {
                    OFFSET -1.69225 -0.51767 -0.607171
                  }
                }
              }
            }
          }
        }
      }
      JOINT lCollar
      {
        OFFSET 2.68224 19.2634 -4.8768
        CHANNELS 3 Zrotation Xrotation Yrotation
        JOINT lShldr
        {
          OFFSET 8.77824 -1.95073 1.46304
          CHANNELS 3 Zrotation Xrotation Yrotation
          JOINT lForeArm
          {
            OFFSET 28.1742 -1.7115 0.48768
            CHANNELS 3 Zrotation Xrotation Yrotation
            JOINT lHand
            {
              OFFSET 22.5879 0.773209 7.07136
              CHANNELS 3 Zrotation Xrotation Yrotation
              JOINT lThumb1
              {
                OFFSET 1.2192 -0.487915 3.41376
                CHANNELS 3 Zrotation Xrotation Yrotation
                JOINT lThumb2
                {
                  OFFSET 3.37035 -0.52449 3.41376
                  CHANNELS 3 Zrotation Xrotation Yrotation
                  End Site
                  {
                    OFFSET 1.78271 -1.18214 1.43049
                  }
                }
              }
              JOINT lIndex1
              {
                OFFSET 7.75947 0.938293 5.60832
                CHANNELS 3 Zrotation Xrotation Yrotation
                JOINT lIndex2
                {
                  OFFSET 2.54057 -0.884171 1.56538
                  CHANNELS 3 Zrotation Xrotation Yrotation
                  End Site
                  {
                    OFFSET 1.62519 -0.234802 1.16502
                  }
                }
              }
              JOINT lMid1
              {
                OFFSET 8.24714 1.18213 3.41376
                CHANNELS 3 Zrotation Xrotation Yrotation
                JOINT lMid2
                {
                  OFFSET 3.10165 -0.590103 1.0647
                  CHANNELS 3 Zrotation Xrotation Yrotation
                  End Site
                  {
                    OFFSET 2.48547 -0.328903 0.83742
                  }
                }
              }
              JOINT lRing1
              {
                OFFSET 8.82822 0.546677 1.51678
                CHANNELS 3 Zrotation Xrotation Yrotation
                JOINT lRing2
                {
                  OFFSET 2.60934 -0.819778 -0.0198488
                  CHANNELS 3 Zrotation Xrotation Yrotation
                  End Site
                  {
                    OFFSET 2.33842 -0.294052 0.168128
                  }
                }
              }
              JOINT lPinky1
              {
                OFFSET 8.27202 -0.0477905 -0.4584
                CHANNELS 3 Zrotation Xrotation Yrotation
                JOINT lPinky2
                {
                  OFFSET 1.82734 -0.647385 -0.700984
                  CHANNELS 3 Zrotation Xrotation Yrotation
                  End Site
                  {
                    OFFSET 1.69225 -0.51767 -0.607171
                  }
                }
              }
            }
          }
        }
      }
    }
  }
  JOINT rButtock
  {
    OFFSET -8.77824 4.35084 1.2192
    CHANNELS 3 Zrotation Xrotation Yrotation
    JOINT rThigh
    {
      OFFSET 0 -1.70687 -2.19456
      CHANNELS 3 Zrotation Xrotation Yrotation
      JOINT rShin
      {
        OFFSET 0 -36.8199 0.73152
        CHANNELS 3 Zrotation Xrotation Yrotation
        JOINT rFoot
        {
          OFFSET 0.73152 -45.1104 -5.12064
          CHANNELS 3 Zrotation Xrotation Yrotation
          End Site
          {
            OFFSET -1.1221 -3.69964 12.103
          }
        }
      }
    }
  }
  JOINT lButtock
  {
    OFFSET 8.77824 4.35084 1.2192
    CHANNELS 3 Zrotation Xrotation Yrotation
    JOINT lThigh
    {
      OFFSET 0 -1.70687 -2.19456
      CHANNELS 3 Zrotation Xrotation Yrotation
      JOINT lShin
      {
        OFFSET 0 -36.8199 0.73152
        CHANNELS 3 Zrotation Xrotation Yrotation
        JOINT lFoot
        {
          OFFSET -0.73152 -45.1104 -5.12064
          CHANNELS 3 Zrotation Xrotation Yrotation
          End Site
          {
            OFFSET 1.1221 -3.69964 12.103
          }
        }
      }
    }
  }
}
MOTION
Frames:	8
Frame Time:	0.00833333
30.0513 82.3046 -2.12664 10.1307 -3.12169 -99.1264 11.9707 24.3808 -5.19546 1.15899 -6.59646 -0.365635 9.10659 14.772 -2.06012 -17.3055 -32.7333 -9.42911 -0 0 0 -0 0 0 -1.33605e-013 -2.67177e-012 1.41584e-013 86.4548 26.7755 -29.0054 -16.0013 -8.68844 29.6754 -0.0111569 3.01435 0.424034 3.97965e-009 1.2348e-009 -1.84365e-009 6.8711e-009 2.14545e-009 -3.21301e-009 3.97966e-009 1.23479e-009 -1.84367e-009 7.73091 5.47488 0.417314 3.97964e-009 1.23479e-009 -1.84365e-009 2.90554 0.965183 0.102902 3.97966e-009 1.23479e-009 -1.84366e-009 10.2786 0.731801 0.0259123 3.97964e-009 1.2348e-009 -1.84366e-009 2.22167 -0.733487 -0.20892 -1.3357e-013 -2.67176e-012 1.41386e-013 -83.9628 30.6889 20.5089 23.8648 -18.8468 -49.1847 9.85189e-006 -0.0896193 0.0125952 1.82803e-009 -2.96509e-009 -2.3577e-009 3.16213e-009 -5.11568e-009 -4.06236e-009 1.82803e-009 -2.96509e-009 -2.35769e-009 -7.73091 5.47488 -0.417314 1.82803e-009 -2.96508e-009 -2.3577e-009 -2.90554 0.965183 -0.102902 1.82802e-009 -2.96508e-009 -2.3577e-009 -10.2786 0.731801 -0.0259123 1.82804e-009 -2.96508e-009 -2.35771e-009 -2.22167 -0.733487 0.20892 -2.03217e-016 0 -3.88251e-019 4.365 -31.0491 3.745 -0.201676 32.8596 0.477641 -3.80338 -10.1065 -11.9432 2.03217e-016 0 3.88251e-019 13.4761 -29.7366 6.43981 1.10294 60.7498 -1.60571 -0.325126 6.13901 -20.7325 
30.9406 82.1066 -2.102 10.1941 -3.17827 -98.9364 12.236 24.4496 -4.67868 1.14633 -6.58125 -0.201606 9.28459 14.8305 -2.11466 -17.7084 -32.7638 -9.65641 -0 0 0 -0 0 0 -9.8523e-014 -2.02946e-012 9.94354e-014 85.8377 26.6639 -28.2252 -15.7675 -8.47099 29.1884 -0.0188009 4.25285 0.598439 3.25658e-009 9.96427e-010 -1.5861e-009 5.62209e-009 1.73127e-009 -2.76249e-009 3.25659e-009 9.96424e-010 -1.58612e-009 7.73091 5.47488 0.417314 3.25658e-009 9.96425e-010 -1.58611e-009 2.90554 0.965183 0.102902 3.25659e-009 9.9642e-010 -1.58611e-009 10.2786 0.731801 0.0259123 3.25658e-009 9.96428e-010 -1.58611e-009 2.22167 -0.733487 -0.20892 -9.84667e-014 -2.02945e-012 9.92631e-014 -84.7867 30.7442 21.1153 23.4674 -18.1386 -47.9485 -1.95534e-005 0.460221 -0.0646791 1.71215e-009 -2.53112e-009 -1.98445e-009 2.96221e-009 -4.36809e-009 -3.42016e-009 1.71214e-009 -2.53111e-009 -1.98444e-009 -7.73091 5.47488 -0.417314 1.71214e-009 -2.5311e-009 -1.98445e-009 -2.90554 0.965183 -0.102902 1.71214e-009 -2.53111e-009 -1.98445e-009 -10.2786 0.731801 -0.0259123 1.71215e-009 -2.5311e-009 -1.98445e-009 -2.22167 -0.733487 0.20892 -2.03217e-016 0 -3.88251e-019 4.62188 -30.9279 3.81885 -0.209515 33.6131 0.507998 -3.96449 -10.8517 -11.9609 2.03217e-016 0 3.88251e-019 13.7324 -31.0333 6.63995 1.2169 62.2579 -1.69083 -0.648944 5.29916 -19.62 
31.8425 81.9665 -2.11218 10.2766 -2.99521 -98.6448 12.1152 24.5906 -4.0931 1.19766 -6.59393 -0.0387757 9.43739 14.8474 -2.12495 -17.9996 -32.6573 -9.74507 -0 0 0 -0 0 0 -3.84455e-014 -7.77684e-013 1.65146e-014 85.1792 26.6061 -27.4242 -15.5685 -8.29095 28.7706 -0.0346673 5.70644 0.80407 1.76987e-009 5.5948e-010 -9.91309e-010 3.05441e-009 9.7176e-010 -1.72361e-009 1.76987e-009 5.5948e-010 -9.91318e-010 7.73091 5.47488 0.417314 1.76986e-009 5.59479e-010 -9.91311e-010 2.90554 0.965183 0.102902 1.76987e-009 5.59476e-010 -9.91313e-010 10.2786 0.731801 0.0259123 1.76987e-009 5.59482e-010 -9.9131e-010 2.22167 -0.733487 -0.20892 -3.83873e-014 -7.77684e-013 1.63594e-014 -85.6169 30.8114 21.7766 23.0337 -17.3994 -46.6515 0.00114893 1.06398 -0.14956 1.29378e-009 -1.44131e-009 -1.00314e-009 2.23869e-009 -2.48874e-009 -1.72953e-009 1.29378e-009 -1.4413e-009 -1.00314e-009 -7.73091 5.47488 -0.417314 1.29378e-009 -1.4413e-009 -1.00314e-009 -2.90554 0.965183 -0.102902 1.29377e-009 -1.4413e-009 -1.00314e-009 -10.2786 0.731801 -0.0259123 1.29378e-009 -1.4413e-009 -1.00315e-009 -2.22167 -0.733487 0.20892 -2.03217e-016 0 -3.88251e-019 4.64434 -30.6849 3.94417 -0.215056 34.1901 0.5375 -4.08301 -11.535 -11.8788 2.03217e-016 0 3.88251e-019 13.6884 -32.1791 6.89043 1.31825 63.4296 -1.76154 -0.991083 4.17258 -18.3297 
32.7583 81.8791 -2.14012 10.3602 -2.71308 -98.3023 11.8166 24.7812 -3.48571 1.25412 -6.63001 0.119431 9.56481 14.8392 -2.11651 -18.2079 -32.4945 -9.76574 -0 0 0 -0 0 0 2.23569e-014 4.51818e-013 -5.71331e-014 84.5649 26.6009 -26.6663 -15.4208 -8.15985 28.4598 -0.0585654 7.10995 1.00401 1.19281e-010 8.12487e-011 -2.89386e-010 2.04093e-010 1.40607e-010 -4.98203e-010 1.19281e-010 8.12517e-011 -2.89389e-010 7.73091 5.47488 0.417314 1.19279e-010 8.12498e-011 -2.89385e-010 2.90554 0.965183 0.102902 1.19285e-010 8.12491e-011 -2.89386e-010 10.2786 0.731801 0.0259123 1.19279e-010 8.12511e-011 -2.89381e-010 2.22167 -0.733487 -0.20892 2.24085e-014 4.51812e-013 -5.72807e-014 -86.4323 30.9033 22.489 22.58 -16.6583 -45.3615 0.00348985 1.69742 -0.238645 7.56015e-010 -2.02569e-010 8.17815e-011 1.3084e-009 -3.51774e-010 1.40189e-010 7.56015e-010 -2.02561e-010 8.17856e-011 -7.73091 5.47488 -0.417314 7.56016e-010 -2.02561e-010 8.17796e-011 -2.90554 0.965183 -0.102902 7.56014e-010 -2.02561e-010 8.17851e-011 -10.2786 0.731801 -0.0259123 7.56016e-010 -2.02561e-010 8.17808e-011 -2.22167 -0.733487 0.20892 -2.03217e-016 0 -3.88251e-019 4.56721 -30.3324 4.12463 -0.218566 34.6029 0.564952 -4.17635 -12.1561 -11.7636 2.03217e-016 0 3.88251e-019 13.4787 -33.2109 7.13591 1.39904 64.2747 -1.8134 -1.30139 2.88717 -16.9899 
33.683 81.8384 -2.17453 10.4295 -2.4594 -97.9661 11.5495 24.999 -2.90409 1.25681 -6.68498 0.269581 9.66678 14.8226 -2.11491 -18.3626 -32.3558 -9.78913 -0 0 0 -0 0 0 5.96139e-014 1.02732e-012 -7.14631e-014 84.0801 26.6489 -26.0156 -15.3413 -8.08933 28.294 -0.0831512 8.19837 1.16021 -1.09541e-009 -2.80973e-010 2.89542e-010 -1.8928e-009 -4.88485e-010 5.11874e-010 -1.09541e-009 -2.80968e-010 2.89542e-010 7.73091 5.47488 0.417314 -1.09541e-009 -2.80971e-010 2.89545e-010 2.90554 0.965183 0.102902 -1.09541e-009 -2.8097e-010 2.89545e-010 10.2786 0.731801 0.0259123 -1.09541e-009 -2.8097e-010 2.89551e-010 2.22167 -0.733487 -0.20892 5.96608e-014 1.02731e-012 -7.16122e-014 -87.2127 31.0321 23.2489 22.1302 -15.9542 -44.143 0.0066992 2.33633 -0.328533 2.8194e-010 6.78225e-010 7.65887e-010 4.88133e-010 1.16867e-009 1.31968e-009 2.8194e-010 6.78232e-010 7.6589e-010 -7.73091 5.47488 -0.417314 2.81943e-010 6.78231e-010 7.65884e-010 -2.90554 0.965183 -0.102902 2.8194e-010 6.78231e-010 7.65891e-010 -10.2786 0.731801 -0.0259123 2.81942e-010 6.78231e-010 7.65887e-010 -2.22167 -0.733487 0.20892 -2.03217e-016 0 -3.88251e-019 4.52468 -29.8825 4.36361 -0.220339 34.864 0.589177 -4.26525 -12.7141 -11.6827 2.03217e-016 0 3.88251e-019 13.2338 -34.1664 7.31909 1.45223 64.8031 -1.84286 -1.55137 1.57944 -15.7231 
34.611 81.8383 -2.20669 10.4673 -2.24212 -97.6392 11.336 25.2679 -2.35044 1.19505 -6.77251 0.412704 9.74353 14.8041 -2.126 -18.457 -32.248 -9.8248 -0 0 0 -0 0 0 6.46966e-014 6.03588e-013 1.00421e-014 83.7471 26.7575 -25.4892 -15.342 -8.08882 28.2982 -0.101978 8.96017 1.27003 -1.74953e-009 -4.93765e-010 7.18506e-010 -3.02044e-009 -8.57112e-010 1.25956e-009 -1.74953e-009 -4.93759e-010 7.18503e-010 7.73091 5.47488 0.417314 -1.74953e-009 -4.93761e-010 7.18509e-010 2.90554 0.965183 0.102902 -1.74952e-009 -4.9376e-010 7.18509e-010 10.2786 0.731801 0.0259123 -1.74953e-009 -4.9376e-010 7.18515e-010 2.22167 -0.733487 -0.20892 6.47413e-014 6.03581e-013 9.87634e-015 -87.9601 31.2179 24.0687 21.6959 -15.3062 -42.9872 0.0107257 3.02741 -0.425823 -1.80345e-010 1.06038e-009 8.43092e-010 -3.12051e-010 1.8308e-009 1.45429e-009 -1.80347e-010 1.06038e-009 8.43096e-010 -7.73091 5.47488 -0.417314 -1.80343e-010 1.06038e-009 8.43089e-010 -2.90554 0.965183 -0.102902 -1.80346e-010 1.06038e-009 8.43095e-010 -10.2786 0.731801 -0.0259123 -1.80343e-010 1.06038e-009 8.4309e-010 -2.22167 -0.733487 0.20892 -2.03217e-016 0 -3.88251e-019 4.53974 -29.3022 4.69786 -0.219471 34.9503 0.610325 -4.36232 -13.2176 -11.6645 2.03217e-016 0 3.88251e-019 12.9576 -35.0333 7.43777 1.47334 64.9968 -1.8461 -1.7524 0.227353 -14.5476 
35.5359 81.8746 -2.24464 10.4855 -2.00835 -97.2917 11.0728 25.5901 -1.80174 1.09893 -6.89004 0.550025 9.79501 14.7741 -2.13648 -18.4806 -32.133 -9.83831 -0 0 0 -0 0 0 5.12681e-014 -4.2354e-013 1.52968e-013 83.517 26.9276 -25.0518 -15.4127 -8.15084 28.4468 -0.115225 9.51709 1.35046 -2.15119e-009 -6.38174e-010 1.10877e-009 -3.71123e-009 -1.10639e-009 1.93913e-009 -2.15119e-009 -6.38168e-010 1.10876e-009 7.73091 5.47488 0.417314 -2.15119e-009 -6.38169e-010 1.10877e-009 2.90554 0.965183 0.102902 -2.15119e-009 -6.38168e-010 1.10877e-009 10.2786 0.731801 0.0259123 -2.15119e-009 -6.38168e-010 1.10878e-009 2.22167 -0.733487 -0.20892 5.13082e-014 -4.23542e-013 1.52772e-013 -88.6879 31.445 24.9484 21.2709 -14.7008 -41.8624 0.0164151 3.76584 -0.529938 -6.94912e-010 1.21608e-009 6.06285e-010 -1.20297e-009 2.10371e-009 1.0486e-009 -6.94917e-010 1.21608e-009 6.06291e-010 -7.73091 5.47488 -0.417314 -6.94912e-010 1.21608e-009 6.06281e-010 -2.90554 0.965183 -0.102902 -6.94916e-010 1.21607e-009 6.06285e-010 -10.2786 0.731801 -0.0259123 -6.94909e-010 1.21608e-009 6.06277e-010 -2.22167 -0.733487 0.20892 -2.03217e-016 0 -3.88251e-019 4.53745 -28.5966 5.11036 -0.21563 34.8639 0.628556 -4.45537 -13.6639 -11.6692 2.03217e-016 0 3.88251e-019 12.5847 -35.7997 7.51396 1.46354 64.8575 -1.82247 -1.90759 -1.2207 -13.4024 
36.4541 81.9461 -2.28452 10.5143 -1.77716 -96.9422 10.7851 25.911 -1.26908 0.970374 -7.00878 0.678369 9.8207 14.7253 -2.14314 -18.4564 -32.0243 -9.834 -0 0 0 -0 0 0 2.84963e-014 -1.57415e-012 3.00961e-013 83.3686 27.1509 -24.6896 -15.5357 -8.26112 28.7025 -0.12105 9.80416 1.39186 -2.34985e-009 -7.28613e-010 1.43757e-009 -4.05149e-009 -1.26188e-009 2.51078e-009 -2.34984e-009 -7.28607e-010 1.43756e-009 7.73091 5.47488 0.417314 -2.34985e-009 -7.28607e-010 1.43757e-009 2.90554 0.965183 0.102902 -2.34984e-009 -7.28606e-010 1.43757e-009 10.2786 0.731801 0.0259123 -2.34985e-009 -7.28606e-010 1.43758e-009 2.22167 -0.733487 -0.20892 2.85319e-014 -1.57414e-012 3.00734e-013 -89.3914 31.673 25.8653 20.8589 -14.135 -40.7971 0.0235294 4.45012 -0.62663 -1.09693e-009 1.25773e-009 2.99485e-010 -1.89915e-009 2.17962e-009 5.22138e-010 -1.09694e-009 1.25773e-009 2.99493e-010 -7.73091 5.47488 -0.417314 -1.09694e-009 1.25773e-009 2.99481e-010 -2.90554 0.965183 -0.102902 -1.09694e-009 1.25773e-009 2.99482e-010 -10.2786 0.731801 -0.0259123 -1.09693e-009 1.25773e-009 2.99472e-010 -2.22167 -0.733487 0.20892 -2.03217e-016 0 -3.88251e-019 4.50862 -27.8357 5.52558 -0.210117 34.6553 0.642808 -4.52913 -14.0351 -11.6622 2.03217e-016 0 3.88251e-019 12.1388 -36.504 7.52522 1.42676 64.4242 -1.77571 -1.99974 -2.6653 -12.2856 
